<?xml version="1.0" encoding="utf-8"?>
<!-- Generator: Adobe Illustrator 16.2.1, SVG Export Plug-In . SVG Version: 6.00 Build 0)  -->
<!DOCTYPE svg PUBLIC "-//W3C//DTD SVG 1.1//EN" "http://www.w3.org/Graphics/SVG/1.1/DTD/svg11.dtd">
<svg version="1.1" xmlns="http://www.w3.org/2000/svg" xmlns:xlink="http://www.w3.org/1999/xlink" x="0px" y="0px"
	 width="929.467px" height="416.647px" viewBox="0 0 929.467 416.647" enable-background="new 0 0 929.467 416.647"
	 xml:space="preserve">
<g id="Layer_1">
	<g>
		<g>
			<path d="M820.886,20.47c11.675,7.53,22.217,16.515,32.157,26.183c4.394,4.272,10.851,9.979,13.702,14.719
				c0-0.841,0-1.683,0-2.523c-0.003,0.006-0.007,0.013-0.01,0.019c1.14-0.299,2.279-0.598,3.42-0.896
				c0.773,0.516-0.49-0.532-0.609-0.65c-2.291-2.271-5.828,1.263-3.535,3.535c0.514,0.509,1.016,1.029,1.621,1.432
				c1.119,0.748,2.783,0.239,3.42-0.896c0.004-0.007,0.008-0.013,0.012-0.02c0.436-0.776,0.465-1.75,0-2.523
				c-3.381-5.619-9.373-10.62-13.972-15.224c-10.235-10.248-21.5-19.614-33.683-27.472C820.691,14.399,818.187,18.729,820.886,20.47
				L820.886,20.47z"/>
		</g>
	</g>
	<g>
		<g>
			<path d="M818.677,15.398c-2.969,27.882,4.54,56.022,9.797,83.189c0.547,2.826,4.911,2.095,4.911-0.665c0-1.618,0-3.236,0-4.854
				c0-3.224-5-3.224-5,0c0,1.618,0,3.236,0,4.854c1.637-0.222,3.274-0.443,4.911-0.665c-5.182-26.774-12.545-54.384-9.619-81.86
				C824.018,12.194,819.014,12.227,818.677,15.398L818.677,15.398z"/>
		</g>
	</g>
	<g>
		<g>
			<path d="M867.562,59.768c-8.877,15.833-27.203,23.48-38.444,37.358c-2.011,2.481,1.505,6.042,3.535,3.535
				c11.546-14.252,30.085-22.064,39.226-38.37C873.458,59.476,869.138,56.956,867.562,59.768L867.562,59.768z"/>
		</g>
	</g>
	<g>
		<g>
			<path d="M835.914,34.642c5.703,6.348,11.959,12.641,16.773,19.726c0.41,0.604,0.587,1.48,0.449,0.316
				c-0.418-3.553,2.392-2.41,3.023-2.125c-0.175-0.079-0.341-0.18-0.506-0.276c-0.988-0.571-1.9-1.284-2.814-1.963
				c-1.693-1.26-6.088-3.74-6.088,0.576c0,3.121,5.771,7.151,7.609,8.99c1.178-1.178,2.356-2.357,3.535-3.535
				c-3.762-3.213-7.51-6.444-11.167-9.775c-1.116-1.017-2.212-2.058-3.284-3.122c-0.426-0.423-0.832-0.862-1.233-1.308
				c-1.653-1.837,4.405,4.039-2.823,2.796c1.902,0.327,4.09,2.24,5.672,3.237c4.648,2.93,9.169,6.066,13.689,9.186
				c2.663,1.838,5.152-2.495,2.523-4.317c-2.014-1.396-18.734-15.115-20.727-7.875c-0.755,2.746,2.336,5.786,3.855,7.654
				c4.836,5.942,10.384,11.35,15.783,16.769c2.001,2.008,5.405-0.578,3.927-3.029c-2.94-4.874-7.14-9.148-10.95-13.333
				c-4.646-5.1-9.416-10.154-14.535-14.784c-1.917-1.733-8.407-5.627-7.407,0.416c0.334,2.017,2.478,4.171,3.634,5.707
				c3.443,4.571,7.111,8.975,10.77,13.374c1.953,2.349,5.012-0.64,3.926-3.029c-3.49-7.681-6.986-15.477-11.496-22.627
				c-1.51-2.394-4.022-6.507-7.429-5.834c-3.231,0.638-3.319,4.966-3.338,7.503c-0.058,7.944,1.712,16.085,3.131,23.855
				c0.587,3.219,5.249,1.781,4.821-1.329c-0.26-1.893-1.074-21.497-6.807-18.139c-2.045,1.198-1.619,4.743-1.639,6.7
				c-0.068,6.621,0.314,13.26,0.622,19.871c1.667,0,3.333,0,5,0c-0.271-5.764-0.537-11.534-1.04-17.283
				c-0.164-1.867-0.011-5.306-1.936-6.433c-5.821-3.411-4.875,14.289-4.938,15.949c1.667,0,3.334,0,5,0
				c0.014-6.263-0.46-13.267,1.238-19.381c0.326-1.173,0.328-0.008-1.277,0.179c-0.914,0.106-1.504-0.938-1.098-0.235
				c0.385,0.665,0.615,1.49,0.898,2.559c0.242,0.915,0.42,1.922,0.459,2.329c0.031,0.327-0.124,1.316,0.068,0.398
				c0.518-2.476,3.174-1.918,3.968-0.789c-0.128-0.182-0.228-0.385-0.332-0.581c-2.913-5.496-4.255-12.232-5.956-18.153
				c-0.778-2.713-4.904-2.179-4.91,0.665c-0.006,3.065-0.032,6.133-0.246,9.191c-0.047,0.67-0.109,1.334-0.234,1.994
				c-0.349,1.837,2.311-1.706,3.713,0.279c-0.406-0.576-0.932-3.871-1.078-5.351c-0.055-0.552,0.016-2.746-0.126-1.971
				c0.015-0.08-4.272,0.111-3.997,0.793c0.341,0.844,0.588,1.728,0.844,2.6c2.593,8.87,4.252,18.062,6.068,27.11
				c0.641,3.189,5.346,1.8,4.822-1.329c-0.789-4.715-1.505-9.479-2.632-14.129c-0.562-2.319-3.198-5.167-5.175-2.051
				c-1.007,1.588-0.34,4.587-0.209,6.303c0.32,4.19,0.783,8.371,1.258,12.545c0.957,8.401,1.942,16.846,3.486,25.163
				c0.303,1.629,0.624,5.14,2.767,5.482c3.47,0.554,3.497-3.054,3.507-5.464c0.012-3.225-4.982-3.224-5,0
				c-0.006,0.908-0.025,1.812-0.105,2.717c-0.159,1.797,2.409-1.597,3.652,0.031c-0.596-0.781-0.807-1.861-1.145-2.996
				c-1.223-4.09-2.03-8.325-2.713-12.534c-0.293-1.802-0.525-3.613-0.66-5.435c-0.05-0.684-0.07-1.368-0.058-2.053
				c0.001-0.054,0.09-0.931-0.003-0.315c0.066-0.439-0.986,1.774-2.941,0.78c-0.372-0.189,1.191,2.514,1.616,3.522
				c1.665,3.949,3.026,8.031,4.387,12.092c1.046,3.123,5.288,1.803,4.821-1.329c-0.768-5.153-1.535-10.307-2.224-15.471
				c-0.179-1.341-0.345-2.684-0.493-4.029c-0.127-1.158,0.335-2.672-0.443-0.908c-1.14,0.299-2.279,0.598-3.42,0.897
				c-1.434-0.717-1.04-1.57-0.566,0.386c0.389,1.602,0.711,3.221,1.045,4.834c1.139,5.517,2.177,11.055,3.223,16.59
				c1.606-0.443,3.214-0.886,4.82-1.329c-1.729-7.395-3.421-14.801-4.859-22.259c-0.554-2.868-1.792-7.337-1.344-9.906
				c0.461-2.645-2.504,1.994-3.293,0.933c0.363,0.489,0.648,1.042,0.94,1.574c0.991,1.809,1.798,3.726,2.614,5.618
				c2.9,6.727,5.396,13.641,7.917,20.515c1.093,2.979,5.725,1.815,4.821-1.329c-1.973-6.868-3.375-15.209-6.85-21.568
				c-1.338-2.447-5.589-0.755-4.57,1.927c2.365,6.223,6.061,12.014,10.154,17.22c1.643,2.089,4.729-0.201,4.178-2.432
				c-1.412-5.73-3.021-11.646-3.194-17.58c-0.078-2.682,0.602-0.893-1.245-1.303c0.555,0.123,1.532,1.331,2.022,1.866
				c3.794,4.146,6.621,9.291,9.499,14.088c1.283,2.142,4.628,1.233,4.658-1.262c0.029-2.395,0.12-4.767,0.817-7.073
				c0.491-1.626-3.15-2.1-2.797-0.741c0.2,0.77-0.035,1.824-0.163,2.583c-1.333,7.871-6.807,15.061-11.834,20.938
				c1.309,1.01,2.617,2.02,3.926,3.029c3.061-4.936,6.121-9.873,9.11-14.853c0.966-1.608,2.821-3.835,2.886-5.824
				c0.051-1.569-1.645-2.917-3.164-2.411c-1.828,0.609-2.979,3.045-4,4.516c-3.45,4.972-6.775,10.034-10.119,15.077
				c1.438,0.841,2.878,1.682,4.316,2.523c2.435-4.919,9.303-15.749,6.053-21.648c-2.198-3.992-7.113-1.685-9.887,0.235
				c-1.879,1.299-7.16,4.896-6.061,7.848c2.072,5.563,10.78-2.417,12.881-3.984c-1.14-1.14-2.279-2.28-3.42-3.42
				c-3.025,4.233-6.2,9.585-10.559,12.641c-0.855,0.6,1.355,1.749,1.287,0.567c-0.05-0.861,0.113-1.758,0.252-2.6
				c0.428-2.612,1.201-5.176,1.938-7.712c-1.637-0.222-3.274-0.443-4.911-0.665c-0.004,4.522-0.08,9.044-0.18,13.565
				c-0.047,2.178-0.105,4.355-0.186,6.532c-0.026,0.688-0.058,1.376-0.096,2.063c-0.062,1.134-0.358,1.031,0.198,0.081
				c1.141-0.299,2.28-0.598,3.421-0.897c1.687,0.789,1.176,2.939,1.077-0.006c-0.064-1.916-0.083-3.833-0.106-5.749
				c-0.104-8.432-0.098-16.866-0.1-25.298c-1.637,0.222-3.273,0.443-4.91,0.665c1.032,7.551,0.757,15.803,3.162,23.09
				c0.639,1.937,2.005,3.544,4.202,3.224c2.567-0.374,3.545-3.911,4.253-5.926c-1.607-0.443-3.215-0.886-4.821-1.329
				c-0.546,2.129-1.034,4.44-2.241,6.312c0.365-0.567,1.658-0.563,2.053,0.008c-0.395-0.572-0.584-1.259-0.79-1.912
				c-1.546-4.894-1.994-10.219-2.544-15.293c-1.053-9.721-1.252-19.51-2.246-29.228c-1.637,0.222-3.274,0.443-4.911,0.665
				c1.19,4.231,2.353,8.488,3.843,12.626c0.521,1.448,1.113,3.228,2.772,3.68c0.815,0.222,1.856,0.017,2.433-0.643
				c1.205-1.382,0.891-3.17,0.716-4.86c-0.455-4.392-1.273-8.757-2.03-13.104c-0.424-2.436-4.333-2.354-4.82,0
				c-2.755,13.296,1.881,24.249,13.77,30.979c2.613,1.479,4.752-1.802,3.029-3.926c-1.672-2.064-9.895-14.237-13.875-9.414
				c-1.52,1.841-0.764,4.438-0.195,6.508c1.48,5.381,3.987,10.569,6.262,15.644c1.316,2.938,5.623,0.393,4.316-2.523
				c-2.263-5.051-5.874-11.212-6.28-16.891c-0.063-0.89-2.935,0.789-2.065,1.258c0.758,0.409,1.384,1.125,1.992,1.714
				c2.296,2.222,4.304,4.762,6.311,7.239c1.01-1.309,2.02-2.617,3.029-3.926c-9.867-5.586-13.771-14.234-11.473-25.332
				c-1.606,0-3.214,0-4.82,0c0.541,3.112,1.066,6.226,1.533,9.351c0.16,1.07,0.288,2.142,0.4,3.218
				c0.164,1.586-0.508,1.876,0.666,0.53c0.811-0.214,1.621-0.429,2.432-0.643c1.379,0.376,1.234,1.146,0.721-0.188
				c-0.324-0.838-0.594-1.7-0.873-2.554c-1.091-3.325-2.022-6.705-2.971-10.072c-0.742-2.636-5.205-2.211-4.91,0.665
				c1.265,12.369,1.481,24.791,3.229,37.127c0.578,4.085,0.908,10.732,4.582,13.432c4.701,3.455,7.174-6.755,7.779-9.119
				c0.81-3.156-3.763-4.34-4.821-1.329c-0.323,0.919-0.653,1.796-1.124,2.65c2.163,0.985,2.934,1.002,2.312,0.052
				c-0.146-0.411-0.272-0.829-0.377-1.252c-0.614-2.227-0.846-4.586-1.119-6.871c-0.597-4.985-0.985-9.992-1.666-14.967
				c-0.39-2.853-4.911-2.075-4.911,0.665c0.002,9.221-0.008,18.443,0.132,27.663c0.026,1.75-0.659,6.709,1.474,7.707
				c1.234,0.577,2.686,0.357,3.42-0.897c1.371-2.34,0.662-6.966,0.727-9.521c0.129-5.08,0.215-10.162,0.219-15.243
				c0.003-2.851-4.124-3.368-4.91-0.665c-1.125,3.867-5.225,13.814,0.381,16.132c2.008,0.83,4.354-1.306,5.663-2.485
				c3.97-3.579,7.091-8.376,10.176-12.691c1.423-1.991-1.428-4.906-3.421-3.42c-2.047,1.526-4.109,3.033-6.275,4.385
				c-0.562,0.35-1.14,0.671-1.735,0.958c0.321-0.154,3.116,1.521,2.351,3.11c0.586-1.215,2.732-2.884,4.205-3.902
				c0.872-0.604,1.801-1.172,2.82-1.483c0.731-0.223-0.158-0.46-0.151-0.402c0.604,5.345-3.772,12.19-5.993,16.678
				c-1.431,2.89,2.529,5.22,4.316,2.523c2.809-4.234,5.622-8.465,8.473-12.671c0.83-1.224,1.668-2.441,2.516-3.652
				c0.845-1.207,1.754-1.51,0.144-0.973c-1.056-0.804-2.11-1.607-3.165-2.411c0.053-1.612-0.158-0.196-0.635,0.639
				c-0.673,1.179-1.377,2.341-2.075,3.505c-2.82,4.698-5.716,9.352-8.603,14.009c-1.479,2.385,2.061,5.209,3.926,3.029
				c5.746-6.717,15.775-18.808,13.197-28.717c-0.66-2.536-3.576-3.333-5.399-1.481c-2.5,2.538-2.317,7.744-2.356,10.955
				c1.553-0.42,3.105-0.841,4.658-1.262c-3.492-5.823-7.347-14.169-13.371-17.769c-2.857-1.708-5.568,0.295-6.051,3.271
				c-1.102,6.813,1.603,14.785,3.203,21.279c1.393-0.811,2.785-1.622,4.178-2.432c-3.439-4.375-7.094-10.345-8.867-15.014
				c-1.523,0.642-3.047,1.284-4.57,1.926c-0.637-1.167,0.102,0.336,0.221,0.667c0.438,1.207,0.843,2.425,1.247,3.644
				c1.765,5.311,3.334,10.686,4.879,16.063c1.606-0.443,3.214-0.886,4.821-1.329c-2.982-8.133-5.967-16.294-9.516-24.202
				c-0.883-1.966-3.064-7.986-6.338-6.624c-3.361,1.4-1.996,6.358-1.604,9.087c1.348,9.396,3.681,18.69,5.84,27.922
				c0.74,3.167,5.412,1.801,4.82-1.329c-1.168-6.185-2.333-12.372-3.625-18.532c-0.348-1.657-0.552-5.356-2.373-6.267
				c-1.107-0.554-2.846-0.407-3.42,0.896c-0.857,1.942-0.127,4.484,0.127,6.489c0.75,5.936,1.646,11.854,2.528,17.771
				c1.606-0.443,3.214-0.886,4.821-1.329c-1.625-4.851-3.28-9.709-5.373-14.382c-0.767-1.712-2.07-4.751-4.399-4.643
				c-5.031,0.235-2.792,9.205-2.372,12.056c0.82,5.57,1.752,11.594,4.021,16.79c0.74,1.693,2.561,3.42,4.502,2.137
				c1.986-1.311,1.758-4.371,1.77-6.439c-1.667,0-3.334,0-5,0c-0.002,0.44-0.094,2.43-0.024,1.91
				c-0.254,1.891,3.62-1.711,4.364,0.101c-0.12-0.294-0.193-0.609-0.273-0.916c-0.543-2.086-0.85-4.246-1.189-6.372
				c-1.121-7.021-1.981-14.087-2.777-21.151c-0.575-5.099-1.327-10.3-1.334-15.441c0-0.214,0.088-1.027-0.045-0.085
				c0.166-1.171-3.962,1.632-4.482,0.222c0.292,0.792,0.444,1.648,0.623,2.47c0.922,4.215,1.604,8.489,2.314,12.743
				c1.607-0.443,3.215-0.886,4.822-1.329c-2.008-9.999-3.225-21.301-7.35-30.747c-0.898-2.06-3.635-2.564-4.9-0.529
				c-0.748,1.201-0.466,3.023-0.334,4.347c0.244,2.47,0.422,8.151,3.488,8.994c5.754,1.583,4.326-13.105,4.33-15.382
				c-1.637,0.222-3.273,0.443-4.91,0.665c1.513,5.271,3.037,10.555,4.93,15.706c0.683,1.858,1.352,4.205,3.018,5.438
				c4.652,3.446,3.956-5.145,3.487-7.007c-0.698-2.769-3.058-8.233-6.711-5.149c-1.55,1.309-1.806,3.952-2.062,5.804
				c-0.802,5.8-0.798,11.711-0.811,17.554c-0.006,3.234,4.881,3.21,5,0c0.111-2.969,0.236-5.937,0.424-8.902
				c0.064-1.023,0.152-2.045,0.262-3.065c0.104-0.98,0.653-1.101-0.314-0.071c-0.811,0.214-1.621,0.429-2.432,0.643
				c-1.797-0.376-1.637-2.367-1.296-0.275c0.221,1.354,0.283,2.75,0.394,4.116c0.41,5.098,0.635,10.213,0.876,15.322
				c0.151,3.209,5.149,3.225,5,0c-0.263-5.644-0.507-11.29-0.604-16.94c-0.026-1.494-0.025-2.988,0.006-4.482
				c0.065-3.113,0.68-0.897-1.379-0.59c-0.811-0.214-1.622-0.429-2.433-0.643c-0.575-0.46-0.176-0.081-0.022,0.516
				c0.301,1.171,0.498,2.372,0.711,3.561c0.682,3.807,1.197,7.646,1.724,11.477c1.606-0.443,3.214-0.886,4.821-1.329
				c-1.088-5.958-2.122-11.933-2.703-17.965c-0.17-1.762-0.256-3.53-0.243-5.3c0.004-0.568,0.028-1.15,0.116-1.712
				c0.281-1.817,0.236,0.572-1.594-0.269c2.461,1.13,4.303,5.804,5.518,7.98c3.292,5.9,6.106,12.076,8.9,18.222
				c1.309-1.01,2.617-2.02,3.926-3.029c-4.43-5.327-9.401-10.64-12.969-16.617c-0.746-1.251-3.543,2.288-3.182,2.494
				c0.5,0.286,0.93,0.691,1.365,1.063c1.643,1.404,3.188,2.926,4.729,4.44c7.155,7.032,15.475,14.647,20.693,23.299
				c1.309-1.01,2.617-2.02,3.926-3.029c-6.116-6.139-13.73-12.504-18.164-20.075c-0.791-1.35-2.986,1.75-1.723,2.128
				c1.217,0.364,2.366,1.135,3.459,1.758c3.959,2.259,7.715,4.899,11.457,7.494c0.842-1.439,1.683-2.878,2.523-4.317
				c-5.527-3.814-11.05-7.682-16.828-11.114c-1.771-1.053-4.686-3.029-6.582-1.133c-2.11,2.111,0.607,4.717,2.047,6.189
				c4.504,4.604,9.561,8.721,14.451,12.897c2.421,2.068,5.844-1.224,3.535-3.535c-1.712-1.714-3.423-3.428-5.102-5.173
				c-0.923-0.959-1.344-2.221-1.132-0.946c-0.214,0.811-0.429,1.622-0.644,2.433c-1.561,1.742-3.803-0.244-2.396,0.727
				c0.29,0.2,0.573,0.413,0.856,0.624c0.729,0.54,1.451,1.086,2.188,1.614c1.697,1.216,3.701,2.561,5.648,1.007
				c2.324-1.853-0.582-5.233-1.742-6.759c-4.986-6.558-10.625-12.646-16.125-18.768C837.29,28.704,833.765,32.251,835.914,34.642
				L835.914,34.642z"/>
		</g>
	</g>
	<g>
		<g>
			<path d="M829.4,42.279c21.742,45.712,60.857,82.346,75.242,131.708c5.608,19.247,7.481,40.798-8.486,55.463
				c-13.107,12.038-32.717,16.125-49.842,18.005c-10.367,1.138-20.851,1.308-31.26,0.77c-3.225-0.167-3.208,4.833,0,4.999
				c17.163,0.888,34.604-0.15,51.346-4.179c15.824-3.808,31.957-11.184,41.082-25.261c11.072-17.082,5.835-40.271-0.234-58.147
				c-8.114-23.898-22.315-45.317-36.385-66.051c-13.17-19.41-27.037-38.578-37.146-59.831
				C832.333,36.845,828.023,39.383,829.4,42.279L829.4,42.279z"/>
		</g>
	</g>
</g>
<g id="Layer_2">
	<g>
		<g>
			<path fill="#1A5BAA" d="M70.452,239.763c3.272,13.405,19.475,4.935,25.78-0.839c4.039-3.697,7.619-8.94,7.518-14.611
				c-0.117-6.56-6.255-10.132-11.776-11.897c-9.632-3.079-17.092,3.447-20.351,11.833c-3.365,8.661-3.221,18.542-1.979,27.597
				c1.186,8.649,4.576,18.198,11.713,23.711c7.526,5.812,17.703,6.121,26.107,2.064c4.763-2.299,7.995-6.707,9.557-11.643
				c0.976-3.083-3.852-4.392-4.821-1.33c-2.813,8.888-12.504,11.999-20.99,10.222c-7.574-1.586-12.088-8.259-14.546-15.094
				c-2.438-6.779-2.998-14.18-2.728-21.328c0.267-7.054,1.886-16.917,8.62-20.686c4.732-2.649,14.271-0.111,16.013,5.492
				c1.167,3.757-1.951,7.935-4.276,10.526c-3.136,3.494-16.776,13.844-19.02,4.652C74.509,235.302,69.687,236.63,70.452,239.763
				L70.452,239.763z"/>
		</g>
	</g>
	<g>
		<g>
			<path fill="#1A5BAA" d="M145.265,239.098c1.327-11.862-10.38-19.237-20.863-14.418c-10.591,4.87-8.899,21.585-6.228,30.601
				c2.788,9.411,12.453,16.333,21.289,9.164c8.109-6.579,7.207-19.262,11.286-27.968c-1.439,0-2.878,0-4.317,0
				c5.383,9.066,6.656,19.888,11.65,29.126c1.534,2.837,5.851,0.312,4.317-2.523c-4.99-9.229-6.257-20.043-11.65-29.126
				c-0.891-1.5-3.496-1.753-4.317,0c-2.799,5.975-3.559,12.772-5.737,18.982c-1.099,3.133-2.693,6.578-5.509,8.517
				c-3.409,2.348-7.8,0.464-9.933-2.589c-4.613-6.601-4.951-17.431-2.742-24.911c1.39-4.707,6.731-6.623,11.181-5.635
				c5.132,1.139,7.106,6.021,6.574,10.78C139.907,242.3,144.911,242.265,145.265,239.098L145.265,239.098z"/>
		</g>
	</g>
	<g>
		<g>
			<path fill="#1A5BAA" d="M162.489,183.257c2.364,0.967,3.232,9.9,3.612,12.141c1.395,8.229,1.944,16.618,2.461,24.939
				c0.889,14.329,0.825,28.714,1.801,43.033c0.217,3.184,5.029,3.253,5,0c-0.057-6.354-0.842-12.746,0.062-19.076
				c0.812-5.676,5.299-11.836,10.829-6.458c4.215,4.1,5.653,11.221,6.875,16.721c1.214,5.463,1.864,11.025,2.476,16.58
				c0.349,3.169,5.353,3.203,5,0c-0.779-7.07-1.673-14.12-3.389-21.035c-1.632-6.573-4.234-14.314-10.309-18.064
				c-5.847-3.608-12.751,0.237-15.004,6.104c-3.068,7.989-1.615,16.899-1.541,25.229c1.667,0,3.333,0,5,0
				c-1.077-15.805-1.003-31.676-2.092-47.488c-0.578-8.385-1.316-16.825-2.945-25.081c-0.841-4.261-1.975-10.511-6.507-12.365
				C160.833,177.214,159.546,182.053,162.489,183.257L162.489,183.257z"/>
		</g>
	</g>
	<g>
		<g>
			<path fill="#1A5BAA" d="M212.199,269.501c-2.042,12.605-5.951,24.723-9.709,36.894c-0.954,3.09,3.873,4.4,4.821,1.33
				c3.758-12.172,7.667-24.289,9.709-36.894C217.531,267.678,212.714,266.325,212.199,269.501L212.199,269.501z"/>
		</g>
	</g>
	<g>
		<g>
			<path fill="#1A5BAA" d="M269.732,187.352c-5.225,11.132-2.942,25.396-1.352,37.099c1.944,14.307,5.324,28.444,6.836,42.804
				c0.333,3.168,5.323,3.213,5,0c-0.753-7.493-2.658-14.838-2.409-22.417c0.112-3.415,0.922-7.328,4.625-8.339
				c3.861-1.054,8.972,1.158,11.716,3.796c8.417,8.09-1.141,35.727-12.723,26.163c-2.465-2.036-6.024,1.48-3.535,3.535
				c7.359,6.077,15.32,2.71,20.235-4.552c5.038-7.444,6.466-18.64,1.419-26.395c-4.876-7.493-18.628-11.332-24.44-3.086
				c-5.845,8.293-0.8,22.224,0.111,31.294c1.667,0,3.333,0,5,0c-1.369-13.001-4.271-25.823-6.245-38.739
				c-1.085-7.101-1.922-14.247-2.178-21.43c-0.201-5.646-0.194-11.989,2.256-17.21C275.411,186.975,271.102,184.435,269.732,187.352
				L269.732,187.352z"/>
		</g>
	</g>
	<g>
		<g>
			<path fill="#1A5BAA" d="M312.199,240.734c1.156,8.225,4.484,37.625,19.163,31.616c6.378-2.611,6.867-12.173,7.166-17.944
				c0.4-7.738-0.062-16.22-2.089-23.74c-0.838-3.109-5.662-1.788-4.821,1.33c1.468,5.444,1.792,11.264,1.957,16.873
				c0.142,4.859,0.902,15.234-3.617,18.613c-7.89,5.901-12.392-24.207-12.936-28.078
				C316.573,236.223,311.756,237.582,312.199,240.734L312.199,240.734z"/>
		</g>
	</g>
	<g>
		<g>
			<path fill="#1A5BAA" d="M353.913,190.861c-0.183-0.665-0.378-1.204-0.397-1.883c-0.091-3.289-4.66-3.142-5,0
				c-0.618,5.708-1.537,11.15-1.532,16.947c0.005,7.116,0.802,14.217,1.756,21.259c1.861,13.727,5.047,27.24,8.12,40.734
				c0.716,3.143,5.536,1.81,4.821-1.33c-2.955-12.976-5.916-25.947-7.888-39.116c-1.069-7.134-1.706-14.334-1.809-21.547
				c-0.083-5.789,0.915-11.244,1.532-16.947c-1.667,0-3.333,0-5,0c0.031,1.1,0.286,2.157,0.576,3.212
				C349.946,195.295,354.77,193.976,353.913,190.861L353.913,190.861z"/>
		</g>
	</g>
	<g>
		<g>
			<path fill="#1A5BAA" d="M344.706,228.006c10.093-0.336,19.619-5.119,28.819-8.827c2.951-1.189,1.664-6.028-1.329-4.822
				c-8.695,3.505-17.95,8.332-27.49,8.649C341.491,223.113,341.48,228.113,344.706,228.006L344.706,228.006z"/>
		</g>
	</g>
	<g>
		<g>
			<path fill="#1A5BAA" d="M415.11,230.055c2.152,12.821,4.535,26.488,11.903,37.49c1.172,1.75,3.973,1.59,4.569-0.597
				c1.838-6.745,2.762-13.713,4.854-20.389c-1.224,0.498-2.448,0.996-3.672,1.494c8.479,5.177,10.809,16.101,19.419,21.359
				c1.113,0.68,2.809,0.299,3.42-0.897c7.094-13.886,6.136-29.827,7.137-44.951c0.213-3.221-4.788-3.2-5,0
				c-0.936,14.148,0.185,29.433-6.454,42.428c1.14-0.299,2.28-0.598,3.42-0.897c-8.479-5.178-10.809-16.102-19.419-21.359
				c-1.42-0.867-3.199-0.016-3.672,1.494c-2.092,6.676-3.016,13.645-4.854,20.389c1.523-0.198,3.046-0.397,4.569-0.597
				c-7.122-10.634-9.318-23.902-11.399-36.297C419.399,225.551,414.581,226.901,415.11,230.055L415.11,230.055z"/>
		</g>
	</g>
	<g>
		<g>
			<path fill="#1A5BAA" d="M474.125,173.833c-4.19-2.836-5.479,3.313-5.644,6.069c-0.441,7.35,0.588,14.898,1.29,22.202
				c2.022,21.031,1.954,42.237,4.475,63.209c0.374,3.109,5.04,3.307,5,0c-0.054-4.44-2.988-30.547,7.195-25.323
				c4.367,2.24,5.973,9.479,7.151,13.736c1.209,4.364,1.884,8.855,3.072,13.223c0.847,3.107,5.67,1.786,4.822-1.33
				c-2.579-9.47-3.414-27.904-15.154-30.979c-15.642-4.096-12.181,22.845-12.087,30.673c1.667,0,3.333,0,5,0
				c-2.212-18.409-1.875-36.982-3.701-55.417c-0.63-6.356-1.287-12.71-1.744-19.083c-0.212-2.94-0.359-5.886-0.369-8.834
				c-0.003-1.09,0.044-2.178,0.135-3.264c0.23-2.766,0.478,1.089-1.965-0.564C474.281,179.963,476.78,175.629,474.125,173.833
				L474.125,173.833z"/>
		</g>
	</g>
	<g>
		<g>
			<path fill="#1A5BAA" d="M531.15,241.721c-5.366-8.55-14.997-12.334-21.649-2.891c-5.157,7.322-2.871,18.314,0.732,25.731
				c3.567,7.343,12.768,11.464,18.596,4.065c5.702-7.24,4.272-17.523,6.456-25.951c-1.523,0.198-3.047,0.397-4.57,0.597
				c4.86,9.12,7.036,19.383,12.621,28.155c1.313,2.062,4.659,1.292,4.659-1.262c0-1.294,0-2.589,0-3.883c0-3.225-5-3.225-5,0
				c0,1.294,0,2.589,0,3.883c1.553-0.421,3.105-0.841,4.659-1.262c-5.577-8.759-7.764-19.039-12.621-28.155
				c-1.023-1.92-4.039-1.452-4.57,0.597c-1.328,5.127-2.699,34.749-13.57,24.15c-4.119-4.017-5.312-11.384-5.294-16.86
				c0.012-3.515,1.492-6.917,4.018-9.346c4.234-4.071,9.133,1.634,11.216,4.954C528.542,246.968,532.869,244.46,531.15,241.721
				L531.15,241.721z"/>
		</g>
	</g>
	<g>
		<g>
			<path fill="#1A5BAA" d="M546.561,188.111c-0.772-0.295-0.209-0.036,0.14,0.588c0.475,0.853,0.737,1.824,1.018,2.752
				c0.792,2.622,1.268,5.345,1.726,8.04c1.351,7.946,2.047,16.012,2.737,24.037c1.16,13.469,1.47,27.108,3.313,40.508
				c0.438,3.182,5.256,1.822,4.822-1.33c-2.087-15.158-2.291-30.632-3.74-45.864c-0.722-7.591-1.539-15.223-3.058-22.703
				c-0.738-3.64-1.654-9.329-5.628-10.848C544.874,182.137,543.582,186.972,546.561,188.111L546.561,188.111z"/>
		</g>
	</g>
	<g>
		<g>
			<path fill="#1A5BAA" d="M542.373,220.239c7.132,0.068,14.228,0.902,21.359,0.971c3.226,0.031,3.223-4.969,0-5
				c-7.132-0.068-14.228-0.902-21.359-0.971C539.147,215.208,539.15,220.208,542.373,220.239L542.373,220.239z"/>
		</g>
	</g>
	<g>
		<g>
			<path fill="#1A5BAA" d="M570.013,168.516c1.031,2.241,1.883,4.556,2.914,6.796c1.178,2.561,5.667,0.682,4.569-1.926
				c-0.895-2.124-2.05-2.718-4.354-2.807c0.833,0.833,1.667,1.667,2.5,2.5c0-1.942,0-3.883,0-5.825
				c-1.423,0.589-2.845,1.179-4.268,1.768c8.445,7.404,3.164,19.5-2.332,27.068c-1.898,2.614,2.442,5.105,4.316,2.523
				c6.857-9.442,11.752-24.185,1.551-33.126c-1.595-1.398-4.268-0.521-4.268,1.768c0,1.942,0,3.883,0,5.825
				c0,1.402,1.139,2.448,2.5,2.5c0.33,0.066,0.661,0.132,0.991,0.198c-0.582-0.582-1.164-1.164-1.746-1.746
				c0.096,0.228,0.191,0.456,0.287,0.684c1.523-0.642,3.047-1.284,4.569-1.926c-1.031-2.241-1.883-4.556-2.914-6.796
				C572.984,163.066,568.674,165.608,570.013,168.516L570.013,168.516z"/>
		</g>
	</g>
	<g>
		<g>
			<path fill="#1A5BAA" d="M607.414,225.288c-8.415-4.466-20.593-0.066-19.326,10.813c1.248,10.724,15.729,15.233,22.123,22.24
				c0-1.179,0-2.356,0-3.535c-5.632,6.044-13.682,6.976-21.533,7.034c-3.223,0.024-3.226,5.024,0,5
				c9.162-0.068,18.539-1.491,25.068-8.499c0.961-1.031,0.943-2.502,0-3.535c-4.95-5.426-11.868-8.627-17.195-13.652
				c-2.823-2.664-4.604-6.039-2.713-9.802c1.893-3.764,7.964-3.386,11.053-1.746C607.736,231.116,610.262,226.801,607.414,225.288
				L607.414,225.288z"/>
		</g>
	</g>
	<g>
		<g>
			<path fill="#1A5BAA" d="M668.846,162.183c-3.656,1.571-1.954,11.35-1.806,14.13c0.581,10.896,1.748,21.768,2.889,32.615
				c2.042,19.427,4.969,38.842,6.415,58.326c0.237,3.195,5.239,3.218,5,0c-1.34-18.053-4.018-36.05-5.959-54.045
				c-1.131-10.482-2.214-20.976-2.994-31.491c-0.273-3.696-0.502-7.4-0.565-11.106c-0.021-1.223-0.008-2.447,0.066-3.668
				c0.089-1.473,0.562-0.909-0.522-0.443C674.325,165.23,671.775,160.924,668.846,162.183L668.846,162.183z"/>
		</g>
	</g>
	<g>
		<g>
			<path fill="#1A5BAA" d="M663.02,225.724c2.9,2.152,8.181,1.744,11.547,1.795c5.523,0.082,11.199-0.303,16.593-1.543
				c3.142-0.723,1.809-5.544-1.33-4.822c-4.58,1.054-9.295,1.298-13.981,1.365c-2.755,0.039-7.946,0.637-10.305-1.113
				C662.951,219.481,660.462,223.825,663.02,225.724L663.02,225.724z"/>
		</g>
	</g>
	<g>
		<g>
			<path fill="#1A5BAA" d="M737.51,239.098c0.257,3.308,1.864,6.334,1.941,9.709c0.073,3.219,5.073,3.227,5,0
				c-0.045-1.966-0.394-3.902-0.854-5.81c-0.2-0.832-0.439-1.655-0.674-2.478c-0.108-0.381-0.216-0.761-0.319-1.143
				c-0.028-0.106-0.152-1.023-0.095-0.279C742.262,235.904,737.26,235.881,737.51,239.098L737.51,239.098z"/>
		</g>
	</g>
	<g>
		<g>
			<path fill="#1A5BAA" d="M735.155,175.434c-0.99,0-2.094-0.055-3.042,0.271c-1.448,0.498-2.313,1.661-2.37,3.201
				c-0.051,1.363,1.176,2.5,2.5,2.5c1.401,0,2.449-1.139,2.5-2.5c0.013-0.263-0.006-0.135-0.056,0.385
				c-0.064,0.148-0.129,0.296-0.192,0.444c-0.332,0.386-0.414,0.493-0.246,0.321c-0.124,0.099-0.249,0.197-0.373,0.295
				c0.215-0.109,0.101-0.062-0.341,0.144c0.104-0.036,0.216-0.053,0.323-0.073c-0.9,0.162-0.047,0.03,0.183,0.022
				c0.371-0.013,0.743-0.01,1.114-0.01c1.362,0,2.5-1.137,2.5-2.5C737.655,176.571,736.517,175.433,735.155,175.434L735.155,175.434
				z"/>
		</g>
	</g>
	<g>
		<g>
			<path fill="#1A5BAA" d="M738.481,241.04c0.998,10.394,2.792,20.686,3.883,31.067c0.333,3.173,5.337,3.205,5,0
				c-1.091-10.382-2.885-20.674-3.883-31.067C743.175,237.86,738.172,237.83,738.481,241.04L738.481,241.04z"/>
		</g>
	</g>
	<g>
		<g>
			<path fill="#1A5BAA" d="M338.549,361.151c-7.695-5.436-18.055-7.839-22.108,2.837c-2.059,5.422-1.04,11.95-0.011,17.462
				c1.117,5.986,2.408,12.203,6.247,17.096c5.234,6.672,12.45,0.819,15.867-4.263c5.076-7.548,7.857-18.036,7.069-27.09
				c-1.637,0.222-3.274,0.443-4.911,0.665c3.047,8.522,5.513,17.243,8.815,25.675c1.274,3.254,2.875,6.305,4.421,9.425
				c0.869,1.754,1.48,4.029,2.935,5.414c0.827,0.788,2.029,0.953,3.029,0.392c1.761-0.989,1.452-2.984,1.244-4.679
				c-0.387-3.158-5.392-3.195-5,0c0.101,0.824,0.247,1.614,0.137,2.439c0.413-0.72,0.826-1.438,1.238-2.158
				c-0.047,0.026-0.095,0.053-0.143,0.08c1.01,0.13,2.02,0.261,3.03,0.391c-1.014-0.966-1.562-3.155-2.153-4.402
				c-1.562-3.299-3.225-6.462-4.564-9.883c-3.084-7.874-5.323-16.062-8.168-24.023c-0.893-2.497-5.169-2.312-4.911,0.665
				c0.589,6.779-1.085,13.705-3.835,19.878c-1.083,2.43-5.681,11.969-9.603,8.916c-2.728-2.122-3.714-6.391-4.578-9.518
				c-1.487-5.382-2.433-11.104-2.19-16.693c0.13-2.997,1.035-7.121,4.196-8.312c3.837-1.444,8.512,1.948,11.423,4.005
				C338.666,367.334,341.16,362.996,338.549,361.151L338.549,361.151z"/>
		</g>
	</g>
	<g>
		<g>
			<path fill="#1A5BAA" d="M360.823,320.592c0.167,12.384,3.687,25.203,5.933,37.316c2.721,14.677,5.956,29.396,7.66,44.236
				c0.363,3.165,5.367,3.2,5,0c-1.662-14.476-4.727-28.824-7.388-43.139c-2.316-12.459-6.033-25.679-6.205-38.414
				C365.78,317.37,360.78,317.366,360.823,320.592L360.823,320.592z"/>
		</g>
	</g>
	<g>
		<g>
			<path fill="#1A5BAA" d="M381.183,317.373c6.845,29.896,7.608,61.081,17.475,90.29c1.026,3.037,5.856,1.733,4.821-1.33
				c-9.867-29.209-10.63-60.394-17.475-90.29C385.285,312.901,380.464,314.233,381.183,317.373L381.183,317.373z"/>
		</g>
	</g>
	<g>
		<g>
			<path fill="#1A5BAA" d="M499.145,369.44c-3.166-10.676-12.65-12.397-20.641-5.233c-9.617,8.623-9.25,23.189-4.312,34.138
				c3.879,8.601,12.117,5.461,16.616-0.583c6.199-8.326,10.277-20.133,9.396-30.568c-1.637,0.222-3.273,0.443-4.911,0.665
				c4.723,13.699,6.102,28.303,11.65,41.746c1.019,2.467,4.911,2.361,4.911-0.665c0-1.294,0-2.589,0-3.883c0-3.225-5-3.225-5,0
				c0,1.294,0,2.589,0,3.883c1.637-0.222,3.273-0.443,4.911-0.665c-5.55-13.442-6.929-28.046-11.65-41.746
				c-0.871-2.525-5.161-2.293-4.911,0.665c0.623,7.375-1.603,14.887-4.744,21.491c-1.238,2.604-6.617,13.212-10.591,9.309
				c-2.678-2.632-3.204-7.875-3.784-11.343c-0.86-5.141-0.125-9.829,2.396-14.394c1.731-3.137,4.55-6.044,7.941-7.33
				c4.438-1.682,6.794,2.11,7.9,5.844C495.238,373.854,500.063,372.54,499.145,369.44L499.145,369.44z"/>
		</g>
	</g>
	<g>
		<g>
			<path fill="#1A5BAA" d="M514.621,325.445c0.197-1.603,0.473,0.109-1.402,0.635c-0.811-0.214-1.621-0.429-2.432-0.643
				c-1.135-1.235-0.254,0.424-0.125,1.749c0.207,2.132,0.326,4.272,0.449,6.41c0.194,3.389,0.362,6.783,0.449,10.177
				c0.216,8.391,2.504,17.265,3.685,25.591c1.45,10.223,3.051,20.419,5.143,30.532c0.569,2.747,5.134,2.149,4.911-0.665
				c-0.406-5.129-2.105-30.949,8.134-24.96c6.917,4.046,9.903,11.644,8.341,19.327c-1.625,7.987-8.042,11.089-15.396,8.075
				c-2.984-1.223-4.271,3.616-1.33,4.822c9.019,3.695,17.053-0.012,20.723-8.853c3.79-9.129,0.369-19.065-6.686-25.343
				c-5.685-5.058-13.176-6.109-16.594,1.779c-3.29,7.595-2.832,17.078-2.192,25.151c1.637-0.222,3.273-0.443,4.911-0.665
				c-2.093-10.113-3.681-20.31-5.144-30.531c-1.176-8.221-3.259-16.842-3.532-25.131c-0.131-3.961-0.327-7.921-0.578-11.876
				c-0.162-2.55,0.251-7.073-1.634-9.127c-0.594-0.646-1.603-0.875-2.433-0.643c-1.939,0.544-2.063,2.522-2.269,4.187
				C509.227,328.641,514.232,328.603,514.621,325.445L514.621,325.445z"/>
		</g>
	</g>
	<g>
		<g>
			<path fill="#1A5BAA" d="M588.259,380.785c-0.087,9.341-1.459,19.554,4.811,27.342c3.999,4.967,11.488,6.113,15.882,1.252
				c4.427-4.897,5.2-12.778,5.435-19.054c0.233-6.229-0.192-14.287-3.994-19.539c-1.871-2.585-6.211-0.094-4.316,2.523
				c5.39,7.447,4.374,22.188,0.771,30.138c-2.315,5.112-6.466,5-10.242,1.144c-5.484-5.602-3.411-16.767-3.346-23.806
				C593.29,377.56,588.29,377.562,588.259,380.785L588.259,380.785z"/>
		</g>
	</g>
	<g>
		<g>
			<path fill="#1A5BAA" d="M636.949,327.388c0-0.971,0-1.942,0-2.913c0-2.245-2.691-3.224-4.268-1.768
				c-2.532,2.338-1.131,8.938-0.917,11.825c0.642,8.675,1.74,17.321,2.828,25.949c1.872,14.834,4.229,29.896,6.093,44.575
				c0.4,3.153,5.405,3.192,5,0c-1.711-13.474-3.802-26.9-5.554-40.37c-1.102-8.475-2.149-16.96-2.964-25.468
				c-0.294-3.066-0.545-6.14-0.676-9.219c-0.046-1.105-0.06-2.212-0.021-3.318c0.032-0.921,0.41-1.053-0.254-0.439
				c-1.423-0.589-2.845-1.179-4.268-1.768c0,0.971,0,1.942,0,2.913C631.949,330.612,636.949,330.612,636.949,327.388
				L636.949,327.388z"/>
		</g>
	</g>
	<g>
		<g>
			<path fill="#1A5BAA" d="M627.652,370.664c9.659-0.005,19.521-0.089,28.445-4.224c2.923-1.355,0.382-5.664-2.523-4.318
				c-8.037,3.725-17.249,3.538-25.922,3.542C624.427,365.665,624.427,370.665,627.652,370.664L627.652,370.664z"/>
		</g>
	</g>
	<g>
		<g>
			<path fill="#1A5BAA" d="M707.822,328.358c1.189-9.811,10.381-17.911,20.311-17.608c4.481,0.137,7.329,3.249,8.364,7.381
				c1.596,6.369-2.541,12.997-5.804,18.111c-6.248,9.791-14.973,19.427-14.199,31.827c0.36,5.788,3.622,22.521,12.794,19.011
				c2.979-1.142,1.687-5.977-1.33-4.822c-4.219,1.616-6.214-11.609-6.464-14.188c-0.69-7.126,3.034-13.543,6.756-19.304
				c6.384-9.881,16.622-21.063,12.553-33.777c-2.777-8.68-12.267-10.541-20.074-8.21c-9.752,2.91-16.7,11.631-17.906,21.58
				C702.434,331.555,707.439,331.518,707.822,328.358L707.822,328.358z"/>
		</g>
	</g>
	<g>
		<g>
			<path fill="#1A5BAA" d="M732.216,410.128c0.239,0.119,0.479,0.239,0.716,0.361c0.169,0.087,0.883,0.566,0.205,0.041
				c0.025,0.024,0.051,0.048,0.076,0.072c-0.797-1.186-0.826-2.159-0.09-2.923c-0.132,0.166-0.293,0.313-0.442,0.463
				c0.589-0.244,1.179-0.488,1.768-0.732c-0.92,0.021-1.836,0.163-2.704,0.472c-0.283,0.101-0.56,0.224-0.839,0.338
				c-0.146,0.06-0.295,0.11-0.445,0.159c-0.507,0.163,0.616-0.021,0.104,0.003c-1.361,0.062-2.5,1.09-2.5,2.5
				c0,1.315,1.138,2.562,2.5,2.5c0.937-0.043,1.657-0.354,2.51-0.679c0.193-0.073,0.391-0.132,0.59-0.189
				c0.058-0.017,0.767-0.139,0.256-0.079c0.405-0.048,0.786-0.002,1.194-0.113c0.556-0.153,0.962-0.497,1.353-0.896
				c1.015-1.033,1.44-2.357,0.763-3.713c-0.482-0.965-1.578-1.445-2.489-1.902c-1.219-0.609-2.699-0.334-3.42,0.897
				C730.665,407.824,730.999,409.518,732.216,410.128L732.216,410.128z"/>
		</g>
	</g>
	<g>
		<g>
			<path fill="#1A5BAA" d="M783.705,239.196c-1.057-7.775-7.094-13.083-15.033-11.688c-8.826,1.552-11.746,12.303-9.505,19.778
				c2.657,8.857,13.354,9.438,18.038,16.348c7.775,11.466-12.498,10.037-18.005,7.643c-2.926-1.271-5.474,3.035-2.523,4.318
				c6.754,2.936,14.989,3.964,21.86,0.854c7.298-3.305,5.569-12.271,1.471-17.365c-5.683-7.062-16.986-7.036-16.608-18.244
				c0.145-4.285,3.148-8.228,7.529-8.634c4.98-0.461,7.38,4.091,7.954,8.321C779.315,243.709,784.132,242.349,783.705,239.196
				L783.705,239.196z"/>
		</g>
	</g>
	<g>
		<g>
			<path fill="#1A5BAA" d="M688.083,176.396c2.353,15.71,5.311,31.328,7.798,47.016c2.509,15.817,5.511,32.18,5.047,48.26
				c1.667,0,3.333,0,5,0c-0.048-7.309-2.975-37.866,12.277-30.204c5.619,2.822,8.518,10.399,10.539,15.904
				c1.88,5.12,3.134,10.43,4.485,15.704c0.801,3.121,5.623,1.796,4.822-1.33c-3.068-11.962-6.744-32.503-21.011-35.991
				c-19.083-4.666-16.182,25.422-16.113,35.917c0.021,3.23,4.907,3.217,5,0c0.463-16.069-2.544-32.418-5.012-48.235
				c-2.521-16.147-5.591-32.208-8.011-48.37C692.429,171.887,687.612,173.243,688.083,176.396L688.083,176.396z"/>
		</g>
	</g>
	<g>
		<g>
			<path fill="#1A5BAA" d="M570.156,373.953c-8.326-0.753-18.419-5.218-20.01,6.853c-1.45,11,3.286,26.525,14.094,31.603
				c11.668,5.481,18.526-8.483,17.719-17.946c-0.878-10.282-7.722-22.34-18.922-23.356c-3.212-0.292-3.184,4.711,0,5
				c8.035,0.729,12.325,10.089,13.716,16.974c1.481,7.337-3.6,20.638-12.758,13.342c-6.921-5.514-9.699-16.055-9-24.466
				c0.304-3.66,1.704-5.263,5.296-4.727c3.313,0.495,6.514,1.422,9.865,1.725C573.368,379.243,573.34,374.241,570.156,373.953
				L570.156,373.953z"/>
		</g>
	</g>
	<g>
		<g>
			<path fill="#1A5BAA" d="M4.132,148.105c-3.635,2.807-0.205,8.5,1.311,11.601c3.914,8.012,8.823,15.582,13.669,23.051
				c5.515,8.5,11.282,16.846,17.314,24.987c3.526,4.758,7.141,10.495,11.86,14.189c2.507,1.963,6.073-1.55,3.535-3.535
				c-3.966-3.105-7.025-7.788-10.021-11.764c-5.189-6.884-10.108-13.976-14.903-21.139c-4.736-7.076-9.326-14.264-13.56-21.653
				c-1.563-2.729-3.059-5.502-4.386-8.354c-0.467-1.004-0.87-2.029-1.201-3.086c-0.504-1.608,0.258-1.023-1.094,0.021
				C9.169,150.482,6.684,146.135,4.132,148.105L4.132,148.105z"/>
		</g>
	</g>
	<g>
		<g>
			<path fill="#1A5BAA" d="M78.427,159.293c1.986-3.986,3.886-7.952,5.106-12.248c0.761-2.681-3.307-4.514-4.569-1.926
				c-22.67,46.448-41.704,94.896-53.65,145.257c1.637,0.222,3.274,0.443,4.911,0.665c0-3.236,0-6.473,0-9.709c0-3.225-5-3.225-5,0
				c0,3.236,0,6.473,0,9.709c0,2.793,4.251,3.446,4.911,0.665c11.848-49.949,30.661-97.995,53.146-144.063
				c-1.523-0.642-3.046-1.284-4.569-1.926c-1.102,3.88-2.809,7.454-4.602,11.053C72.676,159.646,76.989,162.179,78.427,159.293
				L78.427,159.293z"/>
		</g>
	</g>
</g>
</svg>
